{"asset":{"version":"2.0","generator":"Blockbench 5.0.3 glTF exporter"},"scenes":[{"nodes":[23],"name":"blockbench_export"}],"scene":0,"nodes":[{"rotation":[0.5,-0.5,-0.4999999999999999,0.5000000000000001],"translation":[1.8531250000000001,-0.5249999999999999,-1.5906250000000002],"name":"cuboid","mesh":0},{"rotation":[0.5,0.5,0.4999999999999999,0.5000000000000001],"translation":[-1.8531250000000001,-0.5249999999999999,-1.5906250000000002],"name":"cuboid","mesh":1},{"translation":[0,-0.4312499999999999,0.125],"name":"cuboid","mesh":2},{"translation":[0,0.0625,0],"name":"sphere","mesh":3},{"translation":[0,-0.9375,0.0625],"name":"cuboid","mesh":4},{"rotation":[0.3826834323650898,0,0,0.9238795325112867],"translation":[0.875,-0.6343749999999999,-0.07187499999999991],"name":"cuboid","mesh":5},{"rotation":[0.3826834323650898,0,0,0.9238795325112867],"translation":[0.5,-0.6343749999999999,-0.07187499999999991],"name":"cuboid","mesh":6},{"rotation":[0.3826834323650898,0,0,0.9238795325112867],"translation":[1.5,-0.6343749999999999,-0.07187499999999991],"name":"cuboid","mesh":7},{"translation":[0,-2.125,0.0625],"name":"cuboid","mesh":8},{"rotation":[0,-0.3826834323650898,0,0.9238795325112867],"translation":[0.234375,-2.3125,0.0625],"name":"cuboid","mesh":9},{"translation":[0.228125,-3.96875,-0.09375],"name":"cuboid","mesh":10},{"translation":[0.234375,-2.734375,0],"name":"cuboid","mesh":11},{"rotation":[0,-0.3826834323650898,0,0.9238795325112867],"translation":[0,-1.5,0.125],"name":"cuboid","mesh":12},{"translation":[-0.234375,-2.734375,0],"name":"cuboid","mesh":13},{"translation":[-0.228125,-3.96875,-0.09375],"name":"cuboid","mesh":14},{"rotation":[0,0.3826834323650898,0,0.9238795325112867],"translation":[-0.234375,-2.3125,0.0625],"name":"cuboid","mesh":15},{"rotation":[0.3826834323650898,0,0,0.9238795325112867],"translation":[-1.5,-0.6343749999999999,-0.07187499999999991],"name":"cuboid","mesh":16},{"rotation":[0.3826834323650898,0,0,0.9238795325112867],"translation":[-0.5,-0.6343749999999999,-0.07187499999999991],"name":"cuboid","mesh":17},{"rotation":[0,-0.3826834323650898,0,0.9238795325112867],"translation":[0.234375,-3.15625,0.0625],"name":"cuboid","mesh":18},{"rotation":[0,0.3826834323650898,0,0.9238795325112867],"translation":[-0.234375,-3.15625,0.0625],"name":"cuboid","mesh":19},{"rotation":[0.3826834323650898,0,0,0.9238795325112867],"translation":[-0.875,-0.6343749999999999,-0.07187499999999991],"name":"cuboid","mesh":20},{"rotation":[0,0.3826834323650898,0,0.9238795325112867],"translation":[0,-1.5,0.125],"name":"cuboid","mesh":21},{"translation":[0,0.04999999999999982,-0.07499999999999929],"name":"sphere","mesh":22},{"translation":[0,3.65,0],"name":"Skeleton","children":[0,1,2,3,4,5,6,7,8,9,10,11,12,13,14,15,16,17,18,19,20,21,22]}],"bufferViews":[{"buffer":0,"byteOffset":0,"byteLength":480,"target":34962,"byteStride":12},{"buffer":0,"byteOffset":480,"byteLength":480,"target":34962,"byteStride":12},{"buffer":0,"byteOffset":960,"byteLength":320,"target":34962,"byteStride":8},{"buffer":0,"byteOffset":1280,"byteLength":96,"target":34963},{"buffer":0,"byteOffset":1376,"byteLength":480,"target":34962,"byteStride":12},{"buffer":0,"byteOffset":1856,"byteLength":480,"target":34962,"byteStride":12},{"buffer":0,"byteOffset":2336,"byteLength":320,"target":34962,"byteStride":8},{"buffer":0,"byteOffset":2656,"byteLength":96,"target":34963},{"buffer":0,"byteOffset":2752,"byteLength":768,"target":34962,"byteStride":12},{"buffer":0,"byteOffset":3520,"byteLength":768,"target":34962,"byteStride":12},{"buffer":0,"byteOffset":4288,"byteLength":512,"target":34962,"byteStride":8},{"buffer":0,"byteOffset":4800,"byteLength":192,"target":34963},{"buffer":0,"byteOffset":4992,"byteLength":2496,"target":34962,"byteStride":12},{"buffer":0,"byteOffset":7488,"byteLength":2496,"target":34962,"byteStride":12},{"buffer":0,"byteOffset":9984,"byteLength":1664,"target":34962,"byteStride":8},{"buffer":0,"byteOffset":11648,"byteLength":588,"target":34963},{"buffer":0,"byteOffset":12236,"byteLength":960,"target":34962,"byteStride":12},{"buffer":0,"byteOffset":13196,"byteLength":960,"target":34962,"byteStride":12},{"buffer":0,"byteOffset":14156,"byteLength":640,"target":34962,"byteStride":8},{"buffer":0,"byteOffset":14796,"byteLength":240,"target":34963},{"buffer":0,"byteOffset":15036,"byteLength":240,"target":34962,"byteStride":12},{"buffer":0,"byteOffset":15276,"byteLength":240,"target":34962,"byteStride":12},{"buffer":0,"byteOffset":15516,"byteLength":160,"target":34962,"byteStride":8},{"buffer":0,"byteOffset":15676,"byteLength":60,"target":34963},{"buffer":0,"byteOffset":15736,"byteLength":240,"target":34962,"byteStride":12},{"buffer":0,"byteOffset":15976,"byteLength":240,"target":34962,"byteStride":12},{"buffer":0,"byteOffset":16216,"byteLength":160,"target":34962,"byteStride":8},{"buffer":0,"byteOffset":16376,"byteLength":60,"target":34963},{"buffer":0,"byteOffset":16436,"byteLength":288,"target":34962,"byteStride":12},{"buffer":0,"byteOffset":16724,"byteLength":288,"target":34962,"byteStride":12},{"buffer":0,"byteOffset":17012,"byteLength":192,"target":34962,"byteStride":8},{"buffer":0,"byteOffset":17204,"byteLength":72,"target":34963},{"buffer":0,"byteOffset":17276,"byteLength":576,"target":34962,"byteStride":12},{"buffer":0,"byteOffset":17852,"byteLength":576,"target":34962,"byteStride":12},{"buffer":0,"byteOffset":18428,"byteLength":384,"target":34962,"byteStride":8},{"buffer":0,"byteOffset":18812,"byteLength":144,"target":34963},{"buffer":0,"byteOffset":18956,"byteLength":192,"target":34962,"byteStride":12},{"buffer":0,"byteOffset":19148,"byteLength":192,"target":34962,"byteStride":12},{"buffer":0,"byteOffset":19340,"byteLength":128,"target":34962,"byteStride":8},{"buffer":0,"byteOffset":19468,"byteLength":48,"target":34963},{"buffer":0,"byteOffset":19516,"byteLength":480,"target":34962,"byteStride":12},{"buffer":0,"byteOffset":19996,"byteLength":480,"target":34962,"byteStride":12},{"buffer":0,"byteOffset":20476,"byteLength":320,"target":34962,"byteStride":8},{"buffer":0,"byteOffset":20796,"byteLength":120,"target":34963},{"buffer":0,"byteOffset":20916,"byteLength":240,"target":34962,"byteStride":12},{"buffer":0,"byteOffset":21156,"byteLength":240,"target":34962,"byteStride":12},{"buffer":0,"byteOffset":21396,"byteLength":160,"target":34962,"byteStride":8},{"buffer":0,"byteOffset":21556,"byteLength":60,"target":34963},{"buffer":0,"byteOffset":21616,"byteLength":48,"target":34962,"byteStride":12},{"buffer":0,"byteOffset":21664,"byteLength":48,"target":34962,"byteStride":12},{"buffer":0,"byteOffset":21712,"byteLength":32,"target":34962,"byteStride":8},{"buffer":0,"byteOffset":21744,"byteLength":12,"target":34963},{"buffer":0,"byteOffset":21756,"byteLength":240,"target":34962,"byteStride":12},{"buffer":0,"byteOffset":21996,"byteLength":240,"target":34962,"byteStride":12},{"buffer":0,"byteOffset":22236,"byteLength":160,"target":34962,"byteStride":8},{"buffer":0,"byteOffset":22396,"byteLength":60,"target":34963},{"buffer":0,"byteOffset":22456,"byteLength":480,"target":34962,"byteStride":12},{"buffer":0,"byteOffset":22936,"byteLength":480,"target":34962,"byteStride":12},{"buffer":0,"byteOffset":23416,"byteLength":320,"target":34962,"byteStride":8},{"buffer":0,"byteOffset":23736,"byteLength":120,"target":34963},{"buffer":0,"byteOffset":23856,"byteLength":192,"target":34962,"byteStride":12},{"buffer":0,"byteOffset":24048,"byteLength":192,"target":34962,"byteStride":12},{"buffer":0,"byteOffset":24240,"byteLength":128,"target":34962,"byteStride":8},{"buffer":0,"byteOffset":24368,"byteLength":48,"target":34963},{"buffer":0,"byteOffset":24416,"byteLength":288,"target":34962,"byteStride":12},{"buffer":0,"byteOffset":24704,"byteLength":288,"target":34962,"byteStride":12},{"buffer":0,"byteOffset":24992,"byteLength":192,"target":34962,"byteStride":8},{"buffer":0,"byteOffset":25184,"byteLength":72,"target":34963},{"buffer":0,"byteOffset":25256,"byteLength":240,"target":34962,"byteStride":12},{"buffer":0,"byteOffset":25496,"byteLength":240,"target":34962,"byteStride":12},{"buffer":0,"byteOffset":25736,"byteLength":160,"target":34962,"byteStride":8},{"buffer":0,"byteOffset":25896,"byteLength":60,"target":34963},{"buffer":0,"byteOffset":25956,"byteLength":192,"target":34962,"byteStride":12},{"buffer":0,"byteOffset":26148,"byteLength":192,"target":34962,"byteStride":12},{"buffer":0,"byteOffset":26340,"byteLength":128,"target":34962,"byteStride":8},{"buffer":0,"byteOffset":26468,"byteLength":48,"target":34963},{"buffer":0,"byteOffset":26516,"byteLength":192,"target":34962,"byteStride":12},{"buffer":0,"byteOffset":26708,"byteLength":192,"target":34962,"byteStride":12},{"buffer":0,"byteOffset":26900,"byteLength":128,"target":34962,"byteStride":8},{"buffer":0,"byteOffset":27028,"byteLength":48,"target":34963},{"buffer":0,"byteOffset":27076,"byteLength":240,"target":34962,"byteStride":12},{"buffer":0,"byteOffset":27316,"byteLength":240,"target":34962,"byteStride":12},{"buffer":0,"byteOffset":27556,"byteLength":160,"target":34962,"byteStride":8},{"buffer":0,"byteOffset":27716,"byteLength":60,"target":34963},{"buffer":0,"byteOffset":27776,"byteLength":288,"target":34962,"byteStride":12},{"buffer":0,"byteOffset":28064,"byteLength":288,"target":34962,"byteStride":12},{"buffer":0,"byteOffset":28352,"byteLength":192,"target":34962,"byteStride":8},{"buffer":0,"byteOffset":28544,"byteLength":72,"target":34963},{"buffer":0,"byteOffset":28616,"byteLength":3168,"target":34962,"byteStride":12},{"buffer":0,"byteOffset":31784,"byteLength":3168,"target":34962,"byteStride":12},{"buffer":0,"byteOffset":34952,"byteLength":2112,"target":34962,"byteStride":8},{"buffer":0,"byteOffset":37064,"byteLength":720,"target":34963}],"buffers":[{"byteLength":37784,"uri":"data:application/octet-stream;base64,"}],"accessors":[{"bufferView":0,"componentType":5126,"count":40,"max":[0.11562500149011612,1.7218749523162842,0.109375],"min":[-0.25312501192092896,1.600000023841858,-0.359375],"type":"VEC3"},{"bufferView":1,"componentType":5126,"count":40,"max":[0.9986936450004578,0.9483499526977539,0.5382140874862671],"min":[-0.9961019158363342,-0.9993849992752075,-0.7258652448654175],"type":"VEC3"},{"bufferView":2,"componentType":5126,"count":40,"max":[0.6171875,0.616605281829834],"min":[0.00042424758430570364,0],"type":"VEC2"},{"bufferView":3,"componentType":5123,"count":48,"max":[39],"min":[0],"type":"SCALAR"},{"bufferView":4,"componentType":5126,"count":40,"max":[0.25312501192092896,1.7218749523162842,0.109375],"min":[-0.11562500149011612,1.600000023841858,-0.359375],"type":"VEC3"},{"bufferView":5,"componentType":5126,"count":40,"max":[0.9961019158363342,0.9483499526977539,0.5382140874862671],"min":[-0.9986936450004578,-0.9993849992752075,-0.7258652448654175],"type":"VEC3"},{"bufferView":6,"componentType":5126,"count":40,"max":[0.6171875,0.6166051626205444],"min":[0.0949486792087555,0.0859375],"type":"VEC2"},{"bufferView":7,"componentType":5123,"count":48,"max":[39],"min":[0],"type":"SCALAR"},{"bufferView":8,"componentType":5126,"count":64,"max":[0.07187499850988388,0.5,0.05624999850988388],"min":[-0.07187499850988388,-0.375,-0.05624999850988388],"type":"VEC3"},{"bufferView":9,"componentType":5126,"count":64,"max":[0.927246630191803,0.035502929240465164,0.9630176424980164],"min":[-0.927246630191803,-0.005734964739531279,-0.9558274745941162],"type":"VEC3"},{"bufferView":10,"componentType":5126,"count":64,"max":[0.46484375,0.642578125],"min":[0,0.3515625],"type":"VEC2"},{"bufferView":11,"componentType":5123,"count":96,"max":[63],"min":[0],"type":"SCALAR"},{"bufferView":12,"componentType":5126,"count":208,"max":[0.30937498807907104,0.40625,0.36250001192092896],"min":[-0.30937498807907104,-0.36438313126564026,-0.36250001192092896],"type":"VEC3"},{"bufferView":13,"componentType":5126,"count":208,"max":[0.9889403581619263,0.962165355682373,0.9648314714431763],"min":[-0.9889403581619263,-0.7923128008842468,-0.9964971542358398],"type":"VEC3"},{"bufferView":14,"componentType":5126,"count":208,"max":[0.5324233770370483,0.505859375],"min":[0.0007505326066166162,0],"type":"VEC2"},{"bufferView":15,"componentType":5123,"count":294,"max":[207],"min":[0],"type":"SCALAR"},{"bufferView":16,"componentType":5126,"count":80,"max":[0.4375,0.5625,0.25],"min":[-0.4375,-0.1875,-0.25],"type":"VEC3"},{"bufferView":17,"componentType":5126,"count":80,"max":[0.9486833214759827,0.9922778606414795,0.9486833214759827],"min":[-0.9486833214759827,-0.08747062087059021,-0.9534297585487366],"type":"VEC3"},{"bufferView":18,"componentType":5126,"count":80,"max":[0.4657480716705322,0.5625],"min":[0,0],"type":"VEC2"},{"bufferView":19,"componentType":5123,"count":120,"max":[79],"min":[0],"type":"SCALAR"},{"bufferView":20,"componentType":5126,"count":20,"max":[0.25,0.25,0.0625],"min":[-0.375,0.125,-0.0625],"type":"VEC3"},{"bufferView":21,"componentType":5126,"count":20,"max":[1,0.999687671661377,0.999687671661377],"min":[-0.024992190301418304,-0.999687671661377,-0.999687671661377],"type":"VEC3"},{"bufferView":22,"componentType":5126,"count":20,"max":[0.5625,0.5546875],"min":[0.03125,0.1640625],"type":"VEC2"},{"bufferView":23,"componentType":5123,"count":30,"max":[19],"min":[0],"type":"SCALAR"},{"bufferView":24,"componentType":5126,"count":20,"max":[0.015625,0.265625,0.078125],"min":[-0.140625,0.109375,-0.078125],"type":"VEC3"},{"bufferView":25,"componentType":5126,"count":20,"max":[1,0.9950371980667114,0.9950371980667114],"min":[0.09950371831655502,-0.9950371980667114,-0.9950371980667114],"type":"VEC3"},{"bufferView":26,"componentType":5126,"count":20,"max":[0.58984375,0.58984375],"min":[0.0390625,0.03125],"type":"VEC2"},{"bufferView":27,"componentType":5123,"count":30,"max":[19],"min":[0],"type":"SCALAR"},{"bufferView":28,"componentType":5126,"count":24,"max":[0.25,0.25,0.0625],"min":[-0.375,0.125,-0.0625],"type":"VEC3"},{"bufferView":29,"componentType":5126,"count":24,"max":[1,0.9987523555755615,0.9987523555755615],"min":[-1,-0.9987523555755615,-0.9987523555755615],"type":"VEC3"},{"bufferView":30,"componentType":5126,"count":24,"max":[0.5859375,0.5552722811698914],"min":[0.046875,0.0703125],"type":"VEC2"},{"bufferView":31,"componentType":5123,"count":36,"max":[23],"min":[0],"type":"SCALAR"},{"bufferView":32,"componentType":5126,"count":48,"max":[0.36264872550964355,0.6744167804718018,0.1875],"min":[-0.36264872550964355,0.21875,-0.1875],"type":"VEC3"},{"bufferView":33,"componentType":5126,"count":48,"max":[0.999847412109375,0.9104903936386108,1],"min":[-0.999847412109375,-0.9694066047668457,-1],"type":"VEC3"},{"bufferView":34,"componentType":5126,"count":48,"max":[0.296875,0.3078869581222534],"min":[0.0005671874969266355,0],"type":"VEC2"},{"bufferView":35,"componentType":5123,"count":72,"max":[47],"min":[0],"type":"SCALAR"},{"bufferView":36,"componentType":5126,"count":16,"max":[0.0625,0.53125,0.0625],"min":[-0.0625,-0.25,-0.0625],"type":"VEC3"},{"bufferView":37,"componentType":5126,"count":16,"max":[0.9998000860214233,-0.019996000453829765,0.9998000860214233],"min":[-0.9998000860214233,-0.019996000453829765,-0.9998000860214233],"type":"VEC3"},{"bufferView":38,"componentType":5126,"count":16,"max":[0.4453125,0.53125],"min":[0.09375,0.3046875],"type":"VEC2"},{"bufferView":39,"componentType":5123,"count":24,"max":[15],"min":[0],"type":"SCALAR"},{"bufferView":40,"componentType":5126,"count":40,"max":[0.15625,0.5,0.25],"min":[-0.15625,0.328125,-0.40625],"type":"VEC3"},{"bufferView":41,"componentType":5126,"count":40,"max":[1,1,1],"min":[-1,-1,-0.9805806875228882],"type":"VEC3"},{"bufferView":42,"componentType":5126,"count":40,"max":[0.5859375,0.443359375],"min":[0.0546875,0],"type":"VEC2"},{"bufferView":43,"componentType":5123,"count":60,"max":[39],"min":[0],"type":"SCALAR"},{"bufferView":44,"componentType":5126,"count":20,"max":[0.046875,0.234375,0.046875],"min":[-0.046875,0.109375,-0.03125],"type":"VEC3"},{"bufferView":45,"componentType":5126,"count":20,"max":[1,1,0],"min":[-1,-1,-1],"type":"VEC3"},{"bufferView":46,"componentType":5126,"count":20,"max":[0.5859375,0.5703125],"min":[0.09375,0.125],"type":"VEC2"},{"bufferView":47,"componentType":5123,"count":30,"max":[19],"min":[0],"type":"SCALAR"},{"bufferView":48,"componentType":5126,"count":4,"max":[0.03125,-0.46875,0.03125],"min":[-0.03125,-0.46875,-0.03125],"type":"VEC3"},{"bufferView":49,"componentType":5126,"count":4,"max":[0,-1,0],"min":[0,-1,0],"type":"VEC3"},{"bufferView":50,"componentType":5126,"count":4,"max":[0.125,0.0625],"min":[0.1171875,0.0546875],"type":"VEC2"},{"bufferView":51,"componentType":5123,"count":6,"max":[3],"min":[0],"type":"SCALAR"},{"bufferView":52,"componentType":5126,"count":20,"max":[0.046875,0.234375,0.046875],"min":[-0.046875,0.109375,-0.03125],"type":"VEC3"},{"bufferView":53,"componentType":5126,"count":20,"max":[1,1,0],"min":[-1,-1,-1],"type":"VEC3"},{"bufferView":54,"componentType":5126,"count":20,"max":[0.59375,0.5234375],"min":[0.15625,0.3046875],"type":"VEC2"},{"bufferView":55,"componentType":5123,"count":30,"max":[19],"min":[0],"type":"SCALAR"},{"bufferView":56,"componentType":5126,"count":40,"max":[0.15625,0.5,0.25],"min":[-0.15625,0.328125,-0.40625],"type":"VEC3"},{"bufferView":57,"componentType":5126,"count":40,"max":[1,1,1],"min":[-1,-1,-0.9805806875228882],"type":"VEC3"},{"bufferView":58,"componentType":5126,"count":40,"max":[0.609375,0.3422609567642212],"min":[0.171875,0.0703125],"type":"VEC2"},{"bufferView":59,"componentType":5123,"count":60,"max":[39],"min":[0],"type":"SCALAR"},{"bufferView":60,"componentType":5126,"count":16,"max":[0.0625,0.53125,0.0625],"min":[-0.0625,-0.25,-0.0625],"type":"VEC3"},{"bufferView":61,"componentType":5126,"count":16,"max":[0.9998000860214233,-0.019996000453829765,0.9998000860214233],"min":[-0.9998000860214233,-0.019996000453829765,-0.9998000860214233],"type":"VEC3"},{"bufferView":62,"componentType":5126,"count":16,"max":[0.46875,0.5546875],"min":[0.40625,0],"type":"VEC2"},{"bufferView":63,"componentType":5123,"count":24,"max":[15],"min":[0],"type":"SCALAR"},{"bufferView":64,"componentType":5126,"count":24,"max":[0.375,0.25,0.0625],"min":[-0.25,0.125,-0.0625],"type":"VEC3"},{"bufferView":65,"componentType":5126,"count":24,"max":[1,0.9987523555755615,0.9987523555755615],"min":[-1,-0.9987523555755615,-0.9987523555755615],"type":"VEC3"},{"bufferView":66,"componentType":5126,"count":24,"max":[0.59375,0.556640625],"min":[0.0703125,0.046875],"type":"VEC2"},{"bufferView":67,"componentType":5123,"count":36,"max":[23],"min":[0],"type":"SCALAR"},{"bufferView":68,"componentType":5126,"count":20,"max":[0.140625,0.265625,0.078125],"min":[-0.015625,0.109375,-0.078125],"type":"VEC3"},{"bufferView":69,"componentType":5126,"count":20,"max":[-0.09950371831655502,0.9950371980667114,0.9950371980667114],"min":[-1,-0.9950371980667114,-0.9950371980667114],"type":"VEC3"},{"bufferView":70,"componentType":5126,"count":20,"max":[0.59375,0.59375],"min":[0.1953125,0.1640625],"type":"VEC2"},{"bufferView":71,"componentType":5123,"count":30,"max":[19],"min":[0],"type":"SCALAR"},{"bufferView":72,"componentType":5126,"count":16,"max":[0.0625,0.59375,0.0625],"min":[-0.0625,-0.3125,-0.0625],"type":"VEC3"},{"bufferView":73,"componentType":5126,"count":16,"max":[0.999851405620575,-0.017238818109035492,0.999851405620575],"min":[-0.999851405620575,-0.017238818109035492,-0.999851405620575],"type":"VEC3"},{"bufferView":74,"componentType":5126,"count":16,"max":[0.375,0.46875],"min":[0.2265625,0.3515625],"type":"VEC2"},{"bufferView":75,"componentType":5123,"count":24,"max":[15],"min":[0],"type":"SCALAR"},{"bufferView":76,"componentType":5126,"count":16,"max":[0.0625,0.59375,0.0625],"min":[-0.0625,-0.3125,-0.0625],"type":"VEC3"},{"bufferView":77,"componentType":5126,"count":16,"max":[0.999851405620575,-0.017238818109035492,0.999851405620575],"min":[-0.999851405620575,-0.017238818109035492,-0.999851405620575],"type":"VEC3"},{"bufferView":78,"componentType":5126,"count":16,"max":[0.40625,0.421875],"min":[0.3671875,0],"type":"VEC2"},{"bufferView":79,"componentType":5123,"count":24,"max":[15],"min":[0],"type":"SCALAR"},{"bufferView":80,"componentType":5126,"count":20,"max":[0.375,0.25,0.0625],"min":[-0.25,0.125,-0.0625],"type":"VEC3"},{"bufferView":81,"componentType":5126,"count":20,"max":[0.024992190301418304,0.999687671661377,0.999687671661377],"min":[-1,-0.999687671661377,-0.999687671661377],"type":"VEC3"},{"bufferView":82,"componentType":5126,"count":20,"max":[0.609375,0.5625],"min":[0,0],"type":"VEC2"},{"bufferView":83,"componentType":5123,"count":30,"max":[19],"min":[0],"type":"SCALAR"},{"bufferView":84,"componentType":5126,"count":24,"max":[0.0625,0.703125,0.0625],"min":[-0.0625,-0.46875,-0.0625],"type":"VEC3"},{"bufferView":85,"componentType":5126,"count":24,"max":[0.9996446371078491,1,0.9996446371078491],"min":[-0.9996446371078491,-1,-0.9996446371078491],"type":"VEC3"},{"bufferView":86,"componentType":5126,"count":24,"max":[0.609375,0.521484375],"min":[0.04688034579157829,0.0015192627906799316],"type":"VEC2"},{"bufferView":87,"componentType":5123,"count":36,"max":[23],"min":[0],"type":"SCALAR"},{"bufferView":88,"componentType":5126,"count":264,"max":[0.25,0.25,0.3125],"min":[-0.25,-0.25,-0.25],"type":"VEC3"},{"bufferView":89,"componentType":5126,"count":264,"max":[0.9659258127212524,0.9659258127212524,0.9659258127212524],"min":[-0.9659258127212524,-0.9844171404838562,-0.9659258127212524],"type":"VEC3"},{"bufferView":90,"componentType":5126,"count":264,"max":[0.06698749959468842,0.06470626592636108],"min":[0,0],"type":"VEC2"},{"bufferView":91,"componentType":5123,"count":360,"max":[263],"min":[0],"type":"SCALAR"}],"materials":[{"pbrMetallicRoughness":{"metallicFactor":0,"roughnessFactor":1,"baseColorTexture":{"index":0}},"alphaMode":"MASK","alphaCutoff":0.05,"doubleSided":true},{"pbrMetallicRoughness":{"metallicFactor":0,"roughnessFactor":1,"baseColorTexture":{"index":1}},"alphaMode":"MASK","alphaCutoff":0.05,"doubleSided":true}],"textures":[{"sampler":0,"source":0,"name":"skeleton"},{"sampler":1,"source":1,"name":"Darkness.png"}],"samplers":[{"magFilter":9728,"minFilter":9728,"wrapS":33071,"wrapT":33071},{"magFilter":9728,"minFilter":9728,"wrapS":33071,"wrapT":33071}],"images":[{"mimeType":"image/png","uri":"data:image/png;base64,"},{"mimeType":"image/png","uri":"data:image/png;base64,"}],"meshes":[{"primitives":[{"mode":4,"attributes":{"POSITION":0,"NORMAL":1,"TEXCOORD_0":2},"indices":3,"material":0}]},{"primitives":[{"mode":4,"attributes":{"POSITION":4,"NORMAL":5,"TEXCOORD_0":6},"indices":7,"material":0}]},{"primitives":[{"mode":4,"attributes":{"POSITION":8,"NORMAL":9,"TEXCOORD_0":10},"indices":11,"material":0}]},{"primitives":[{"mode":4,"attributes":{"POSITION":12,"NORMAL":13,"TEXCOORD_0":14},"indices":15,"material":0}]},{"primitives":[{"mode":4,"attributes":{"POSITION":16,"NORMAL":17,"TEXCOORD_0":18},"indices":19,"material":0}]},{"primitives":[{"mode":4,"attributes":{"POSITION":20,"NORMAL":21,"TEXCOORD_0":22},"indices":23,"material":0}]},{"primitives":[{"mode":4,"attributes":{"POSITION":24,"NORMAL":25,"TEXCOORD_0":26},"indices":27,"material":0}]},{"primitives":[{"mode":4,"attributes":{"POSITION":28,"NORMAL":29,"TEXCOORD_0":30},"indices":31,"material":0}]},{"primitives":[{"mode":4,"attributes":{"POSITION":32,"NORMAL":33,"TEXCOORD_0":34},"indices":35,"material":0}]},{"primitives":[{"mode":4,"attributes":{"POSITION":36,"NORMAL":37,"TEXCOORD_0":38},"indices":39,"material":0}]},{"primitives":[{"mode":4,"attributes":{"POSITION":40,"NORMAL":41,"TEXCOORD_0":42},"indices":43,"material":0}]},{"primitives":[{"mode":4,"attributes":{"POSITION":44,"NORMAL":45,"TEXCOORD_0":46},"indices":47,"material":0}]},{"primitives":[{"mode":4,"attributes":{"POSITION":48,"NORMAL":49,"TEXCOORD_0":50},"indices":51,"material":0}]},{"primitives":[{"mode":4,"attributes":{"POSITION":52,"NORMAL":53,"TEXCOORD_0":54},"indices":55,"material":0}]},{"primitives":[{"mode":4,"attributes":{"POSITION":56,"NORMAL":57,"TEXCOORD_0":58},"indices":59,"material":0}]},{"primitives":[{"mode":4,"attributes":{"POSITION":60,"NORMAL":61,"TEXCOORD_0":62},"indices":63,"material":0}]},{"primitives":[{"mode":4,"attributes":{"POSITION":64,"NORMAL":65,"TEXCOORD_0":66},"indices":67,"material":0}]},{"primitives":[{"mode":4,"attributes":{"POSITION":68,"NORMAL":69,"TEXCOORD_0":70},"indices":71,"material":0}]},{"primitives":[{"mode":4,"attributes":{"POSITION":72,"NORMAL":73,"TEXCOORD_0":74},"indices":75,"material":0}]},{"primitives":[{"mode":4,"attributes":{"POSITION":76,"NORMAL":77,"TEXCOORD_0":78},"indices":79,"material":0}]},{"primitives":[{"mode":4,"attributes":{"POSITION":80,"NORMAL":81,"TEXCOORD_0":82},"indices":83,"material":0}]},{"primitives":[{"mode":4,"attributes":{"POSITION":84,"NORMAL":85,"TEXCOORD_0":86},"indices":87,"material":0}]},{"primitives":[{"mode":4,"attributes":{"POSITION":88,"NORMAL":89,"TEXCOORD_0":90},"indices":91,"material":1}]}]}