{
  "accessors": [
    {
      "bufferView": 2,
      "componentType": 5126,
      "count": 267,
      "max": [
        1.3979400396347046,
        4.0,
        4.08588981628418
      ],
      "min": [
        -2.0,
        -3.3503000736236572,
        1.0
      ],
      "type": "VEC3"
    },
    {
      "bufferView": 2,
      "byteOffset": 3204,
      "componentType": 5126,
      "count": 267,
      "max": [
        0.9902858138084412,
        0.9980219602584839,
        0.983368456363678
      ],
      "min": [
        -0.9902858138084412,
        -1.0,
        -1.0
      ],
      "type": "VEC3"
    },
    {
      "bufferView": 1,
      "componentType": 5126,
      "count": 267,
      "max": [
        0.7125899791717529,
        0.8504649996757507
      ],
      "min": [
        0.04463199898600578,
        0.07568100094795227
      ],
      "type": "VEC2"
    },
    {
      "bufferView": 1,
      "byteOffset": 2136,
      "componentType": 5126,
      "count": 267,
      "max": [
        0.7125899791717529,
        0.8504649996757507
      ],
      "min": [
        0.04463199898600578,
        0.07568100094795227
      ],
      "type": "VEC2"
    },
    {
      "bufferView": 1,
      "byteOffset": 4272,
      "componentType": 5126,
      "count": 267,
      "max": [
        0.7125899791717529,
        0.8504649996757507
      ],
      "min": [
        0.04463199898600578,
        0.07568100094795227
      ],
      "type": "VEC2"
    },
    {
      "bufferView": 1,
      "byteOffset": 6408,
      "componentType": 5126,
      "count": 267,
      "max": [
        0.7125899791717529,
        0.8504649996757507
      ],
      "min": [
        0.04463199898600578,
        0.07568100094795227
      ],
      "type": "VEC2"
    },
    {
      "bufferView": 0,
      "componentType": 5125,
      "count": 366,
      "type": "SCALAR"
    }
  ],
  "asset": {
    "extras": {
      "author": "U.A.C.WAD (https://sketchfab.com/hilalarican23)",
      "license": "CC-BY-4.0 (http://creativecommons.org/licenses/by/4.0/)",
      "source": "https://sketchfab.com/3d-models/psx-floppa-pixel-texture-dcc57c44bc9b4cc883c05b966a4b719e",
      "title": "Psx_floppa pixel texture"
    },
    "generator": "Sketchfab-15.20.0",
    "version": "2.0"
  },
  "bufferViews": [
    {
      "buffer": 0,
      "byteLength": 1464,
      "name": "floatBufferViews",
      "target": 34963
    },
    {
      "buffer": 0,
      "byteLength": 8544,
      "byteOffset": 1464,
      "byteStride": 8,
      "name": "floatBufferViews",
      "target": 34962
    },
    {
      "buffer": 0,
      "byteLength": 6408,
      "byteOffset": 10008,
      "byteStride": 12,
      "name": "floatBufferViews",
      "target": 34962
    }
  ],
  "buffers": [
    {
      "byteLength": 16416,
      "uri": "scene.bin"
    }
  ],
  "extensionsUsed": [
    "KHR_materials_unlit"
  ],
  "images": [
    {
      "uri": "textures/Meshpart1Mtl_baseColor.png"
    }
  ],
  "materials": [
    {
      "doubleSided": true,
      "extensions": {
        "KHR_materials_unlit": {}
      },
      "name": "Meshpart1Mtl",
      "pbrMetallicRoughness": {
        "baseColorTexture": {
          "index": 0
        },
        "metallicFactor": 0.0
      }
    }
  ],
  "meshes": [
    {
      "name": "Object_0",
      "primitives": [
        {
          "attributes": {
            "NORMAL": 1,
            "POSITION": 0,
            "TEXCOORD_0": 2,
            "TEXCOORD_1": 3,
            "TEXCOORD_2": 4,
            "TEXCOORD_3": 5
          },
          "indices": 6,
          "material": 0,
          "mode": 4
        }
      ]
    }
  ],
  "nodes": [
    {
      "children": [
        1
      ],
      "matrix": [
        1.0,
        0.0,
        0.0,
        0.0,
        0.0,
        2.220446049250313e-16,
        -1.0,
        0.0,
        0.0,
        1.0,
        2.220446049250313e-16,
        0.0,
        0.0,
        0.0,
        0.0,
        1.0
      ],
      "name": "Sketchfab_model"
    },
    {
      "children": [
        2
      ],
      "name": "root"
    },
    {
      "children": [
        3
      ],
      "matrix": [
        1.0,
        0.0,
        0.0,
        0.0,
        0.0,
        2.220446049250313e-16,
        1.0,
        0.0,
        0.0,
        -1.0,
        2.220446049250313e-16,
        0.0,
        0.0,
        0.0,
        0.0,
        1.0
      ],
      "name": "GLTF_SceneRootNode"
    },
    {
      "children": [
        4
      ],
      "matrix": [
        1.0,
        0.0,
        0.0,
        0.0,
        0.0,
        2.220446049250313e-16,
        -1.0,
        0.0,
        0.0,
        1.0,
        2.220446049250313e-16,
        0.0,
        0.0,
        0.0,
        0.0,
        1.0
      ],
      "name": "Sketchfab_model_0"
    },
    {
      "children": [
        5
      ],
      "name": "6bccc0e625574a45b2323eed121b9669.obj.cleaner.materialmerger.gles_1"
    },
    {
      "children": [
        6
      ],
      "name": "Object_2_2"
    },
    {
      "mesh": 0,
      "name": "Object_6"
    }
  ],
  "samplers": [
    {
      "magFilter": 9728,
      "minFilter": 9728,
      "wrapS": 10497,
      "wrapT": 10497
    }
  ],
  "scene": 0,
  "scenes": [
    {
      "name": "Sketchfab_Scene",
      "nodes": [
        0
      ]
    }
  ],
  "textures": [
    {
      "sampler": 0,
      "source": 0
    }
  ]
}
